HIERARCHY
ROOT root
{
	OFFSET	0	13.1	24.9
	CHANNELS 6  Xposition Yposition Zposition Xrotation Yrotation Zrotation
	JOINT spine_1
	{
		OFFSET	0	9.99999	0
		CHANNELS 3  Xrotation Yrotation Zrotation
		JOINT spine_2
		{
			OFFSET	0	112	-10
			CHANNELS 3  Xrotation Yrotation Zrotation
			JOINT spine_3
			{
				OFFSET	0	206.5	19.3
				CHANNELS 3  Xrotation Yrotation Zrotation
				JOINT spine_4
				{
					OFFSET	0	110.4	14.6
					CHANNELS 3  Xrotation Yrotation Zrotation
					JOINT neck_1
					{
						OFFSET	0	71.8	-50.3
						CHANNELS 3  Xrotation Yrotation Zrotation
						JOINT neck_2
						{
							OFFSET	0	86.2	-25.8
							CHANNELS 3  Xrotation Yrotation Zrotation
							JOINT head_ee
							{
								OFFSET	0	179.8	-8.7
								CHANNELS 3  Xrotation Yrotation Zrotation
								End Site
								{
									OFFSET	1	0	0
								}
							}
						}
					}
					JOINT left_clavicle
					{
						OFFSET	-43.2	22.4	-70.8
						CHANNELS 3  Xrotation Yrotation Zrotation
						JOINT left_shoulder
						{
							OFFSET	-93.9	-5.79999	48.7
							CHANNELS 3  Xrotation Yrotation Zrotation
							JOINT left_elbow
							{
								OFFSET	-291.4	-30.8	15.2
								CHANNELS 3  Xrotation Yrotation Zrotation
								JOINT left_lowarm_twist
								{
									OFFSET	-110.7	-3.89999	13.6
									CHANNELS 3  Xrotation Yrotation Zrotation
									JOINT left_hand
									{
										OFFSET	-110.7	-3.89999	13.6
										CHANNELS 3  Xrotation Yrotation Zrotation
										JOINT left_ee
										{
											OFFSET	-80.8	-5.10001	12.1
											CHANNELS 3  Xrotation Yrotation Zrotation
											End Site
											{
												OFFSET	1	0	0
											}
										}
									}
								}
							}
						}
					}
					JOINT right_clavicle
					{
						OFFSET	43.2	22.4	-70.8
						CHANNELS 3  Xrotation Yrotation Zrotation
						JOINT right_shoulder
						{
							OFFSET	93.9	-5.79999	48.7
							CHANNELS 3  Xrotation Yrotation Zrotation
							JOINT right_elbow
							{
								OFFSET	291.4	-30.8	15.2
								CHANNELS 3  Xrotation Yrotation Zrotation
								JOINT right_lowarm_twist
								{
									OFFSET	110.7	-3.89999	13.6
									CHANNELS 3  Xrotation Yrotation Zrotation
									JOINT right_hand
									{
										OFFSET	110.7	-3.89999	13.6
										CHANNELS 3  Xrotation Yrotation Zrotation
										JOINT right_ee
										{
											OFFSET	80.8	-5.10001	12.1
											CHANNELS 3  Xrotation Yrotation Zrotation
											End Site
											{
												OFFSET	1	0	0
											}
										}
									}
								}
							}
						}
					}
				}
			}
		}
	}
	JOINT left_hip
	{
		OFFSET	-82.8	-127.5	0.300001
		CHANNELS 3  Xrotation Yrotation Zrotation
		JOINT left_knee
		{
			OFFSET	-28.2	-396.7	2.2
			CHANNELS 3  Xrotation Yrotation Zrotation
			JOINT left_ankle
			{
				OFFSET	-11.7	-411.3	35.4
				CHANNELS 3  Xrotation Yrotation Zrotation
				JOINT left_toes
				{
					OFFSET	0	-60	-88.6
					CHANNELS 3  Xrotation Yrotation Zrotation
					JOINT left_foot_ee
					{
						OFFSET	-22.5	-16.5	-42.2
						CHANNELS 3  Xrotation Yrotation Zrotation
						End Site
						{
							OFFSET	1	0	0
						}
					}
				}
			}
		}
	}
	JOINT right_hip
	{
		OFFSET	82.8	-127.5	0.300001
		CHANNELS 3  Xrotation Yrotation Zrotation
		JOINT right_knee
		{
			OFFSET	28.2	-396.7	2.2
			CHANNELS 3  Xrotation Yrotation Zrotation
			JOINT right_ankle
			{
				OFFSET	11.7	-411.3	35.4
				CHANNELS 3  Xrotation Yrotation Zrotation
				JOINT right_toes
				{
					OFFSET	0	-60	-88.6
					CHANNELS 3  Xrotation Yrotation Zrotation
					JOINT right_foot_ee
					{
						OFFSET	22.5	-16.5	-42.2
						CHANNELS 3  Xrotation Yrotation Zrotation
						End Site
						{
							OFFSET	1	0	0
						}
					}
				}
			}
		}
	}
}
MOTION
Frames: 16
Frame Time: 0.02
399.406 621.505 -1743.21 -67.3316 62.6252 66.5641 12.3089 -0.472671 -1.89452 12.3109 -0.351182 -1.92075 12.3168 -0.357554 -1.91957 12.3123 -0.656177 -1.83906 -13.0787 -8.35761 13.492 -12.926 -24.3258 10.4594 -0.0 0.0 -0.0 2.46227 -2.31412 4.56386 -18.6724 -24.1491 82.9848 0.518357 -14.4014 0.0654905 -82.8865 -8.18674 5.23158 -9.90451 24.6285 -57.2976 -0.0 0.0 -0.0 -9.62815 -24.0352 10.5346 -32.8642 26.4043 -67.5132 4.71411 66.7954 -3.10911 22.013 -0.243466 2.78417 -1.37532 -25.7686 -2.46717 0.0 0.0 0.0 30.1823 13.4219 1.33771 3.61944 -0.165881 -0.530487 26.857 -29.7318 -4.38453 22.247 -0.0 -0.0 -0.0 0.0 -0.0 38.0211 7.91956 -2.53898 -13.2562 -0.315017 -2.00543 42.8428 -26.7233 5.49573 18.7244 -0.0 -0.0 0.0 0.0 0.0 
396.766 621.545 -1745.16 -68.8277 62.6205 68.0525 12.3446 -0.484808 -1.97934 12.3467 -0.357901 -2.00616 12.3529 -0.365832 -2.00473 12.3479 -0.677793 -1.92185 -13.7732 -7.79909 13.8385 -13.6116 -23.3591 10.8185 -0.0 0.0 -0.0 2.4343 -1.46498 4.57612 -18.6793 -23.39 83.6475 0.429147 -12.0019 0.0451124 -81.5338 -8.01608 5.25646 -9.70321 24.1687 -55.7582 -0.0 0.0 -0.0 -9.68692 -24.2508 10.5305 -32.2846 25.1418 -68.3578 4.77865 67.0756 -3.16849 21.4089 -0.25114 2.70739 -1.54001 -26.2699 -1.77579 0.0 0.0 0.0 30.075 13.605 1.1469 3.36455 -0.153103 -0.493475 26.3816 -29.8278 -4.32607 21.6953 -0.0 -0.0 -0.0 0.0 -0.0 37.7236 7.96372 -2.22414 -13.4174 -0.315974 -2.03014 42.7719 -26.366 5.47561 18.0941 -0.0 -0.0 0.0 0.0 0.0 
395.313 622.398 -1750.81 -69.3885 63.0319 68.7919 12.3101 -0.487876 -1.99692 12.3123 -0.359845 -2.0239 12.3185 -0.366635 -2.02268 12.3135 -0.68142 -1.93945 -14.9575 -7.22446 14.1275 -14.8108 -22.2121 11.0416 -0.0 0.0 -0.0 2.42843 -0.910865 4.60808 -18.5139 -22.4627 83.5721 0.33618 -9.4551 0.0278019 -79.8873 -7.80754 5.28125 -9.43588 23.5396 -53.8282 -0.0 0.0 -0.0 -9.88726 -24.385 10.7642 -32.0447 23.5299 -68.9023 4.79586 67.1492 -3.18434 20.5443 -0.260715 2.59736 -1.77441 -26.8934 -0.768685 0.0 0.0 0.0 30.7094 13.8608 1.16063 3.35765 -0.15276 -0.492472 25.8533 -29.8243 -4.25427 20.9033 -0.0 -0.0 -0.0 0.0 -0.0 37.2109 8.07601 -2.51496 -13.7946 -0.317942 -2.08798 42.6706 -25.8518 5.44728 17.195 -0.0 -0.0 0.0 0.0 0.0 
395.427 620.978 -1760.13 -72.3262 63.0549 71.4911 12.2685 -0.475134 -1.88834 12.2704 -0.354033 -1.91474 12.2765 -0.359037 -1.91381 12.272 -0.656731 -1.83313 -15.0343 -7.30325 14.0916 -14.9003 -22.3249 10.9639 -0.0 0.0 -0.0 2.65305 -0.607386 5.06726 -18.5016 -22.1706 84.2998 0.33243 -9.35152 0.0271893 -79.6783 -7.78102 5.28396 -9.50508 23.9607 -53.8768 -0.0 0.0 -0.0 -9.78509 -24.592 10.5294 -31.7369 22.077 -69.5682 4.82085 67.2554 -3.20738 19.9468 -0.26636 2.52126 -1.8693 -26.8166 -0.210352 0.0 0.0 0.0 30.6332 13.9022 0.720636 3.09332 -0.139687 -0.454028 25.7684 -29.8898 -4.24625 20.8648 -0.0 -0.0 -0.0 0.0 -0.0 37.0848 7.8312 -2.19792 -14.0274 -0.318966 -2.12369 42.6269 -25.8048 5.44158 17.0264 -0.0 -0.0 0.0 0.0 0.0 
387.549 625.848 -1759.53 -73.6381 63.4265 72.3446 12.1261 -0.454132 -1.72868 12.1277 -0.343229 -1.75407 12.1335 -0.343415 -1.75403 12.1297 -0.616083 -1.67782 -14.9056 -7.35724 14.074 -14.7692 -22.4432 10.9545 -0.0 0.0 -0.0 2.65519 -0.820478 5.05566 -19.0159 -21.81 84.3296 0.323272 -9.09826 0.0257211 -79.4165 -7.74776 5.28722 -9.60766 24.5711 -53.9537 -0.0 0.0 -0.0 -9.60276 -24.9039 10.1383 -31.3724 20.02 -70.553 4.85302 67.3906 -3.23706 19.0918 -0.273058 2.41225 -2.01694 -26.7064 0.655959 0.0 0.0 0.0 30.6349 13.9526 0.806381 2.82481 -0.12659 -0.414917 25.646 -30.0025 -4.23564 20.8095 -0.0 -0.0 -0.0 0.0 -0.0 36.8521 7.42976 -2.32448 -14.364 -0.320191 -2.17532 42.5656 -25.7389 5.43359 16.7955 -0.0 -0.0 0.0 0.0 0.0 
389.113 621.759 -1764.65 -75.3264 63.9049 74.5312 11.898 -0.467527 -1.81281 11.8998 -0.351246 -1.83887 11.906 -0.344146 -1.84021 11.9018 -0.63041 -1.76281 -14.7048 -7.46285 14.0496 -14.5659 -22.6695 10.936 -0.0 0.0 -0.0 2.54485 -1.14803 4.81634 -19.5022 -21.6421 84.0619 0.320492 -9.02131 0.0252833 -79.0931 -7.70668 5.29104 -9.83001 25.5211 -54.7264 -0.0 0.0 -0.0 -9.25454 -24.8633 9.66064 -31.469 19.2709 -70.8735 4.84511 67.3575 -3.22976 18.2682 -0.277971 2.30718 -2.20893 -26.5504 1.7925 0.0 0.0 0.0 30.6688 14.0212 0.979405 2.45078 -0.108654 -0.360335 25.471 -30.1679 -4.22061 20.7313 -0.0 -0.0 -0.0 0.0 -0.0 36.5315 6.87196 -2.46084 -14.8332 -0.321392 -2.2473 42.4655 -25.6999 5.42305 16.4779 -0.0 -0.0 0.0 0.0 0.0 
388.645 623.371 -1768.37 -76.8934 64.6028 76.3846 11.5724 -0.456082 -1.74429 11.574 -0.344182 -1.76977 11.58 -0.327255 -1.77297 11.5762 -0.603117 -1.69907 -14.3119 -7.59278 14.0182 -14.1599 -22.9748 10.9445 -0.0 0.0 -0.0 2.62273 -0.994574 4.97957 -20.0074 -21.5356 83.9917 0.320378 -9.01816 0.0252654 -78.7681 -7.66535 5.29464 -10.1499 26.8142 -55.9018 -0.0 0.0 -0.0 -8.78646 -24.7824 9.03132 -31.7159 18.5475 -71.1654 4.8507 67.3809 -3.23492 17.1316 -0.282269 2.16207 -2.47342 -26.3216 3.37384 0.0 0.0 0.0 30.8282 14.0896 0.926944 1.88692 -0.0822889 -0.277839 25.2162 -30.4898 -4.20303 20.6675 -0.0 -0.0 -0.0 0.0 -0.0 36.0755 6.10972 -2.47207 -15.2284 -0.321946 -2.30793 42.4965 -25.7193 5.42658 16.0807 -0.0 -0.0 0.0 0.0 0.0 
387.615 625.061 -1770.33 -77.3322 64.884 76.6728 11.4271 -0.438207 -1.62588 11.4285 -0.333874 -1.65046 11.4342 -0.313864 -1.65438 11.4309 -0.571172 -1.58408 -13.5367 -7.86564 13.8611 -13.3621 -23.5432 10.8718 -0.0 0.0 -0.0 2.77514 -1.60644 5.23166 -20.6899 -21.5826 83.9052 0.321766 -9.05658 0.0254834 -78.4529 -7.62525 5.2979 -10.6208 28.587 -57.7639 -0.0 0.0 -0.0 -8.13258 -24.5937 8.1828 -31.9133 17.3029 -71.1407 4.85752 67.4094 -3.24122 15.4213 -0.283311 1.94363 -2.88334 -25.7121 5.98763 0.0 0.0 0.0 30.5123 14.2138 1.06342 1.0215 -0.0434095 -0.150741 25.0362 -30.9598 -4.20406 20.6371 -0.0 -0.0 -0.0 0.0 -0.0 36.1134 5.5624 -2.43758 -15.4286 -0.322067 -2.33864 42.821 -25.6403 5.45323 15.5738 -0.0 -0.0 0.0 0.0 0.0 
386.954 624.835 -1771.86 -78.2754 64.8467 77.5617 11.4024 -0.439013 -1.59002 11.4038 -0.33696 -1.61472 11.4095 -0.316683 -1.61882 11.4063 -0.568341 -1.54852 -12.017 -8.31664 13.5331 -11.7792 -24.4543 10.7656 -0.0 0.0 -0.0 3.00135 -2.46399 5.61409 -21.6341 -21.6483 83.8002 0.323578 -9.10674 0.0257696 -78.0272 -7.57106 5.30196 -11.2469 30.7389 -60.525 -0.0 0.0 -0.0 -7.11109 -24.2743 6.86445 -30.8563 15.6961 -71.6135 4.78624 67.1081 -3.17548 12.9778 -0.27349 1.63172 -3.41839 -24.4062 9.77475 0.0 0.0 0.0 30.0144 14.3908 1.2694 -0.332327 0.0135413 0.0492012 24.8017 -31.6321 -4.2092 20.5983 -0.0 -0.0 -0.0 0.0 -0.0 36.1381 4.75574 -2.40342 -15.7332 -0.322046 -2.38538 43.3022 -25.6148 5.49562 15.1751 -0.0 -0.0 0.0 0.0 0.0 
384.365 624.109 -1772.53 -79.7387 65.1543 78.9173 11.3112 -0.437418 -1.54034 11.3124 -0.338528 -1.56504 11.3182 -0.316368 -1.56967 11.3152 -0.56027 -1.50003 -11.4527 -9.40366 12.6754 -11.2778 -26.0306 9.74284 -0.0 0.0 -0.0 3.20335 -3.40623 5.94765 -23.0941 -21.7387 83.5362 0.325888 -9.17064 0.0261363 -77.4156 -7.49314 5.30707 -11.8836 32.4489 -64.7611 -0.0 0.0 -0.0 -6.96245 -23.9245 6.77032 -30.7455 15.7716 -71.0471 4.7287 66.8594 -3.12252 11.3389 -0.259453 1.42286 -3.86281 -24.0513 12.5752 0.0 0.0 0.0 30.0315 14.6438 0.932954 -0.436652 0.0177332 0.0646623 24.4908 -31.8092 -4.1751 20.5134 -0.0 -0.0 -0.0 0.0 -0.0 36.06 1.45931 -1.53941 -16.2078 -0.321517 -2.45819 43.1525 -25.7923 5.4887 14.6398 -0.0 -0.0 0.0 0.0 0.0 
379.906 624.961 -1775.96 -81.3839 65.5879 80.7608 11.1523 -0.43464 -1.46455 11.1534 -0.340577 -1.48923 11.1592 -0.315336 -1.49478 11.1565 -0.547428 -1.42624 -11.2265 -10.2694 12.0244 -11.1131 -27.2631 8.90884 -0.0 0.0 -0.0 3.5829 -4.53995 6.62864 -23.5479 -22.3705 83.6596 0.329346 -9.26626 0.0266902 -77.035 -7.44463 5.30983 -12.0632 32.9423 -66.0194 -0.0 0.0 -0.0 -6.63519 -23.6181 6.40714 -31.0061 16.4363 -70.8161 4.63153 66.4273 -3.03331 9.79919 -0.240829 1.22707 -4.28192 -24.721 14.6101 0.0 0.0 0.0 30.0282 14.8333 0.702224 -0.581911 0.023523 0.0862024 24.0388 -32.1328 -4.12867 20.3872 -0.0 -0.0 -0.0 0.0 -0.0 36.1695 -0.54194 -1.52631 -16.7049 -0.320316 -2.53446 42.8519 -25.9513 5.46741 15.3245 -0.0 -0.0 0.0 0.0 0.0 
379.344 623.871 -1775.05 -81.9646 65.8037 81.3785 10.9231 -0.456011 -1.51233 10.9243 -0.358865 -1.53827 10.9307 -0.326641 -1.54543 10.9278 -0.566589 -1.47448 -10.1745 -10.8492 12.2512 -9.9621 -28.6231 9.27523 -0.0 0.0 -0.0 4.04701 -6.00183 7.47115 -24.6635 -22.6866 83.8318 0.331962 -9.33858 0.0271132 -76.2808 -7.34842 5.31434 -12.2797 33.4873 -67.8394 -0.0 0.0 -0.0 -6.69577 -23.8372 6.42377 -32.221 17.1619 -70.0604 4.46478 65.6493 -2.88093 7.61155 -0.205333 0.949895 -4.88333 -25.6888 17.5014 0.0 0.0 0.0 29.9542 15.1476 0.825486 -0.630454 0.0254456 0.0934038 23.4562 -30.8552 -3.97371 20.1754 -0.0 -0.0 -0.0 0.0 -0.0 36.2753 -3.42124 -1.60854 -17.4246 -0.317406 -2.64484 42.4059 -26.1503 5.43404 16.3115 -0.0 -0.0 0.0 0.0 0.0 
377.688 622.999 -1777.9 -82.3405 65.719 81.7588 10.8369 -0.458422 -1.39847 10.8379 -0.368514 -1.4248 10.8444 -0.336495 -1.4327 10.842 -0.55852 -1.3616 -8.83135 -11.5823 13.0821 -8.41352 -30.6999 10.3528 -0.0 0.0 -0.0 4.65453 -7.9507 8.5944 -25.0993 -23.0324 83.5387 0.318296 -8.9605 0.0249401 -75.2033 -7.21084 5.31857 -12.2552 33.3106 -68.1323 -0.0 0.0 -0.0 -6.71995 -23.725 6.49301 -33.0344 19.9885 -68.8034 4.39555 65.3119 -2.81794 7.04171 -0.194352 0.877933 -5.3935 -26.9454 19.6012 0.0 0.0 0.0 29.845 15.6116 0.845421 -0.291594 0.0118972 0.0431665 22.8221 -26.6241 -3.68296 20.1126 -0.0 -0.0 -0.0 0.0 -0.0 36.6435 -7.32569 -0.774527 -17.5038 -0.317001 -2.65698 40.091 -25.7857 5.20294 17.7219 -0.0 -0.0 0.0 0.0 0.0 
380.13 624.333 -1778.94 -82.5831 65.4391 82.2333 10.7259 -0.498339 -1.50063 10.727 -0.401852 -1.52929 10.7347 -0.364558 -1.5386 10.7319 -0.602952 -1.46175 -9.00726 -11.5974 14.0105 -8.53115 -31.3461 11.2439 -0.0 0.0 -0.0 4.78425 -8.87158 8.80688 -24.8802 -23.2582 83.5603 0.297992 -8.39735 0.0218764 -73.0765 -6.93905 5.31925 -12.3975 33.9007 -68.355 -0.0 0.0 -0.0 -6.72043 -23.6756 6.50924 -34.0676 24.3602 -66.8256 4.43798 65.5197 -2.85652 7.3326 -0.200047 0.914654 -5.5647 -28.2943 19.5612 0.0 0.0 0.0 29.7482 14.5491 1.05389 -0.122092 0.00500812 0.0180668 20.971 -25.2123 -3.36771 20.2462 -0.0 -0.0 -0.0 0.0 -0.0 37.0236 -9.00448 -0.443716 -17.2631 -0.31818 -2.62007 40.5797 -25.5047 5.2402 17.8204 -0.0 -0.0 0.0 0.0 0.0 
376.967 623.696 -1780.76 -81.5814 65.0919 80.9584 10.6752 -0.548077 -1.52708 10.6764 -0.449807 -1.55885 10.6855 -0.410452 -1.56967 10.6826 -0.653174 -1.48517 -9.11107 -10.554 15.9739 -8.43992 -30.7425 13.4807 -0.0 0.0 -0.0 4.7749 -9.72143 8.73473 -22.7937 -23.201 83.5956 0.276409 -7.79693 0.0188363 -70.3984 -6.59687 5.30566 -12.4309 34.0371 -68.4083 -0.0 0.0 -0.0 -6.87742 -23.6946 6.72448 -35.542 29.0545 -64.4633 4.42871 65.4746 -2.84809 7.64299 -0.205918 0.953869 -5.57893 -28.3248 19.6204 0.0 0.0 0.0 29.626 13.0298 1.35937 0.11207 -0.00463105 -0.0165746 20.6788 -23.4915 -3.26618 20.8481 -0.0 -0.0 -0.0 0.0 -0.0 37.5225 -9.77401 -0.350179 -16.9177 -0.3196 -2.5671 42.5782 -25.1895 5.41516 17.8507 -0.0 -0.0 0.0 0.0 0.0 
374.525 626.397 -1779.3 -82.6411 65.2294 81.1732 10.707 -0.515086 -1.55821 10.7083 -0.414902 -1.58782 10.7165 -0.375683 -1.59755 10.7135 -0.623243 -1.5182 -9.60276 -9.33529 18.1271 -8.73969 -29.8696 15.8334 -0.0 0.0 -0.0 4.70444 -9.55468 8.59868 -22.3576 -23.4434 83.9289 0.245626 -6.93757 0.0148888 -69.5536 -6.48906 5.29803 -12.399 33.904 -68.3705 -0.0 0.0 -0.0 -7.00187 -23.5125 6.95906 -35.8088 30.6136 -63.6922 4.48646 65.7532 -2.90069 8.08326 -0.213882 1.00954 -5.55363 -28.3644 19.4412 0.0 0.0 0.0 29.4359 10.0679 1.93018 0.10443 -0.0043145 -0.015445 20.3543 -23.8343 -3.23222 21.744 -0.0 -0.0 -0.0 0.0 -0.0 37.9313 -10.5857 -0.508807 -16.8051 -0.319994 -2.54983 43.0611 -25.761 5.47932 17.696 -0.0 -0.0 0.0 0.0 0.0 
